<?xml version="1.0" encoding="utf-8"?>
<!-- Generator: Adobe Illustrator 16.0.0, SVG Export Plug-In . SVG Version: 6.00 Build 0)  -->
<!DOCTYPE svg PUBLIC "-//W3C//DTD SVG 1.1//EN" "http://www.w3.org/Graphics/SVG/1.1/DTD/svg11.dtd">
<svg version="1.1" id="Camada_1" xmlns="http://www.w3.org/2000/svg" xmlns:xlink="http://www.w3.org/1999/xlink" x="0px" y="0px"
	 width="453.543px" height="453.543px" viewBox="0 0 453.543 453.543" enable-background="new 0 0 453.543 453.543"
	 xml:space="preserve">
<g>
	<circle fill-rule="evenodd" clip-rule="evenodd" fill="#2E8354" cx="226.771" cy="226.771" r="214.216"/>
	<g>
		<path fill="#70EA8B" d="M226.771,201.868c8.663,0.009,17.331-5.572,17.331-16.744c0-31.734,0-63.469,0-95.204
			c0-11.172-8.668-16.753-17.331-16.744c-8.663-0.009-17.332,5.572-17.332,16.744c0,31.735,0,63.47,0,95.204
			C209.439,196.296,218.108,201.877,226.771,201.868z"/>
		<path fill="#70EA8B" d="M306.547,93.164c-8.048-4.939-18.995-1.795-23.685,6.21c-4.846,8.272-1.816,18.758,6.211,23.685
			c3.314,2.034,6.584,4.151,9.716,6.461c0.78,0.588,1.214,0.909,1.317,0.978c0.585,0.467,1.172,0.932,1.75,1.408
			c1.275,1.064,2.551,2.13,3.787,3.24c5.35,4.804,10.42,9.938,14.962,15.521c0.47,0.57,0.929,1.151,1.389,1.729
			c0.048,0.077,0.378,0.521,0.99,1.335c0.97,1.352,1.94,2.703,2.86,4.089c1.846,2.776,3.641,5.589,5.279,8.492
			c1.645,2.914,3.236,5.859,4.662,8.887c0.559,1.187,1.11,2.375,1.643,3.572c0.054,0.2,1.194,3.013,1.233,3.119
			c2.558,6.918,4.687,14.01,6.093,21.257c0.328,1.693,0.656,3.388,0.92,5.092c0.1,0.646,0.172,1.091,0.225,1.393
			c0.023,0.246,0.054,0.54,0.09,0.891c0.361,3.496,0.655,7.001,0.75,10.516c0.178,6.713-0.019,13.446-0.792,20.122
			c-0.071,0.397-0.411,2.784-0.464,3.085c-0.271,1.549-0.544,3.1-0.869,4.637c-0.646,3.053-1.345,6.098-2.199,9.1
			c-0.985,3.469-2.051,6.918-3.309,10.299c-0.398,1.07-0.804,2.137-1.222,3.199c-0.276,0.635-1.001,2.349-1.112,2.588
			c-2.563,5.514-5.406,10.908-8.68,16.035c-1.898,2.975-3.864,5.908-5.986,8.729c-0.158,0.21-0.288,0.385-0.403,0.539
			c-0.154,0.184-0.348,0.417-0.599,0.721c-0.957,1.162-1.916,2.328-2.912,3.459c-3.98,4.523-8.188,8.855-12.727,12.824
			c-1.512,1.32-3.033,2.637-4.603,3.891c-0.327,0.264-0.575,0.463-0.767,0.619c-0.146,0.105-0.308,0.223-0.5,0.363
			c-2.439,1.781-4.908,3.523-7.459,5.143c-5.122,3.248-10.413,6.244-15.924,8.787c-0.919,0.432-1.844,0.852-2.773,1.262
			c0.071-0.029,0.121-0.049,0.187-0.076c-0.092,0.039-0.169,0.07-0.272,0.111c-1.424,0.563-2.848,1.125-4.291,1.641
			c-2.898,1.035-5.816,2.02-8.779,2.855c-5.605,1.582-11.3,2.877-17.063,3.742c-0.532,0.035-3.968,0.439-4.458,0.479
			c-1.59,0.129-3.182,0.256-4.775,0.33c-2.402,0.109-4.809,0.188-7.216,0.188s-4.813-0.078-7.217-0.188
			c-1.594-0.074-3.185-0.201-4.774-0.33c-0.49-0.039-3.926-0.443-4.458-0.479c-5.764-0.865-11.458-2.16-17.064-3.742
			c-2.963-0.836-5.881-1.82-8.779-2.855c-1.442-0.516-2.866-1.078-4.29-1.641c-0.104-0.042-0.181-0.073-0.272-0.111
			c0.065,0.027,0.115,0.047,0.187,0.076c-0.93-0.41-1.854-0.83-2.774-1.262c-5.51-2.543-10.801-5.539-15.923-8.787
			c-2.551-1.619-5.02-3.361-7.459-5.143c-0.192-0.141-0.354-0.258-0.501-0.363c-0.19-0.156-0.438-0.356-0.766-0.619
			c-1.57-1.254-3.091-2.57-4.603-3.891c-4.539-3.969-8.747-8.301-12.727-12.824c-0.996-1.131-1.955-2.297-2.913-3.459
			c-0.25-0.304-0.443-0.537-0.598-0.721c-0.115-0.154-0.246-0.329-0.403-0.539c-2.122-2.82-4.088-5.754-5.986-8.729
			c-3.274-5.127-6.117-10.521-8.68-16.035c-0.111-0.239-0.836-1.953-1.112-2.588c-0.418-1.063-0.823-2.129-1.222-3.199
			c-1.258-3.381-2.323-6.83-3.31-10.299c-0.854-3.002-1.552-6.047-2.198-9.1c-0.325-1.537-0.598-3.088-0.869-4.637
			c-0.053-0.301-0.393-2.688-0.464-3.085c-0.773-6.676-0.971-13.409-0.792-20.122c0.095-3.515,0.388-7.02,0.75-10.516
			c0.036-0.351,0.065-0.645,0.09-0.891c0.052-0.302,0.124-0.747,0.225-1.393c0.263-1.704,0.592-3.398,0.92-5.092
			c1.406-7.247,3.534-14.339,6.093-21.257c0.039-0.106,1.18-2.919,1.233-3.119c0.532-1.197,1.083-2.386,1.642-3.572
			c1.427-3.027,3.019-5.973,4.663-8.887c1.638-2.903,3.434-5.716,5.278-8.492c0.921-1.386,1.892-2.737,2.861-4.089
			c0.612-0.813,0.941-1.258,0.99-1.335c0.46-0.578,0.919-1.159,1.389-1.729c4.542-5.583,9.611-10.718,14.962-15.521
			c1.236-1.11,2.512-2.176,3.786-3.24c0.578-0.477,1.166-0.941,1.751-1.408c0.104-0.068,0.536-0.39,1.317-0.978
			c3.132-2.31,6.401-4.427,9.716-6.461c8.027-4.927,11.056-15.412,6.211-23.685c-4.689-8.005-15.637-11.149-23.685-6.21
			c-53.359,32.745-81.715,93.748-73.035,155.595c7.799,55.564,46.901,101.281,98.445,121.662
			c17.542,6.936,35.99,10.104,54.365,9.939c18.375,0.164,36.823-3.004,54.364-9.939c51.545-20.381,90.647-66.098,98.446-121.662
			C388.261,186.912,359.906,125.909,306.547,93.164z"/>
	</g>
</g>
</svg>
