<?xml version="1.0" encoding="utf-8"?>
<!-- Generator: Adobe Illustrator 16.0.0, SVG Export Plug-In . SVG Version: 6.00 Build 0)  -->
<!DOCTYPE svg PUBLIC "-//W3C//DTD SVG 1.1//EN" "http://www.w3.org/Graphics/SVG/1.1/DTD/svg11.dtd">
<svg version="1.1" id="Camada_1" xmlns="http://www.w3.org/2000/svg" xmlns:xlink="http://www.w3.org/1999/xlink" x="0px" y="0px"
	 width="453.543px" height="453.543px" viewBox="56.693 56.693 453.543 453.543"
	 enable-background="new 56.693 56.693 453.543 453.543" xml:space="preserve">
<g>
	<circle fill="#F34336" cx="283.464" cy="283.465" r="214.217"/>
	<g>
		<g>
			<path fill="#FFFFFF" d="M345.931,179.237c11.35,6.993,19.373,13.707,29.289,25.058c4.359,4.994,5.797,7.09,10.072,13.895
				c1.779,2.829,3.4,5.753,4.969,8.705c0.785,1.48,1.52,2.99,2.25,4.499c0.26,0.535,2.818,6.436,1.643,3.566
				c2.588,6.3,4.578,12.828,6.195,19.438c0.82,3.355,1.449,6.757,2.018,10.166c0.93,5.61-0.344-3.36,0.303,2.323
				c0.268,2.337,0.43,4.683,0.576,7.028c0.414,6.591,0.238,13.211-0.289,19.787c-0.129,1.582-0.311,3.156-0.492,4.73
				c0.461-4-0.205,1.152-0.283,1.629c-0.582,3.592-1.369,7.148-2.236,10.682c-1.471,5.98-3.445,11.828-5.709,17.551
				c-1.861,4.709,1.41-3.133-0.656,1.477c-0.623,1.391-1.291,2.758-1.961,4.125c-1.553,3.18-3.283,6.271-5.078,9.322
				c-1.533,2.605-3.195,5.135-4.896,7.633c-0.854,1.246-1.74,2.467-2.631,3.686c-2.949,4.035,2.137-2.633-0.982,1.27
				c-4.08,5.1-8.6,9.836-13.355,14.305c-2.195,2.064-4.492,4.021-6.82,5.936c-3.857,3.178,2.734-2.004-1.258,1.002
				c-1.209,0.908-2.445,1.777-3.684,2.646c-5.383,3.779-11.09,7.076-16.953,10.043c-1.359,0.691-2.744,1.334-4.129,1.977
				c-0.408,0.189-5.07,2.152-1.484,0.678c-2.85,1.17-5.752,2.197-8.672,3.17c-6.414,2.143-13.012,3.695-19.664,4.863
				c-0.455,0.08-5.639,0.809-1.666,0.299c-1.582,0.203-3.172,0.352-4.762,0.5c-3.213,0.301-6.436,0.434-9.66,0.51
				c-3.226,0.076-6.452-0.014-9.674-0.16c-1.594-0.072-3.185-0.199-4.773-0.33c-0.691-0.055-7.236-0.838-3.256-0.285
				c-6.177-0.857-12.271-2.242-18.268-3.936c-2.963-0.836-5.881-1.82-8.779-2.854c-1.441-0.518-2.865-1.078-4.291-1.643
				c-1.857-0.76-1.887-0.77-0.086-0.035c-0.93-0.408-1.854-0.83-2.773-1.262c-5.51-2.543-10.801-5.539-15.923-8.787
				c-2.552-1.619-5.021-3.359-7.459-5.143c-4.035-2.947,2.633,2.139-1.268-0.982c-1.569-1.254-3.09-2.568-4.603-3.891
				c-4.539-3.969-8.747-8.301-12.727-12.824c-0.997-1.131-1.955-2.297-2.913-3.459c-3.177-3.859,2.006,2.736-1.001-1.26
				c-2.122-2.82-4.087-5.754-5.985-8.729c-3.274-5.127-6.117-10.521-8.681-16.035c-0.188-0.406-2.151-5.072-0.678-1.486
				c-0.584-1.422-1.12-2.861-1.656-4.301c-1.258-3.381-2.323-6.83-3.31-10.299c-0.854-3.002-1.552-6.047-2.198-9.1
				c-0.326-1.539-0.598-3.088-0.87-4.637c-0.08-0.453-0.809-5.639-0.298-1.664c-0.918-7.143-1.148-14.355-0.958-21.545
				c0.094-3.515,0.389-7.02,0.75-10.516c0.584-5.662-0.553,3.313,0.314-2.283c0.263-1.705,0.592-3.397,0.92-5.092
				c1.406-7.247,3.534-14.339,6.092-21.257c0.053-0.145,2.135-5.273,0.785-2.109c0.659-1.544,1.375-3.063,2.091-4.582
				c1.427-3.026,3.019-5.973,4.663-8.887c1.638-2.904,3.434-5.716,5.279-8.492c0.921-1.386,1.891-2.737,2.86-4.089
				c1.222-1.623,1.32-1.781,0.299-0.475c0.684-0.872,1.377-1.735,2.08-2.59c4.542-5.583,9.612-10.719,14.963-15.522
				c1.235-1.11,2.512-2.175,3.786-3.24c0.855-0.705,1.72-1.399,2.592-2.083c-1.305,1.021-1.146,0.918,0.477-0.303
				c3.132-2.31,6.401-4.426,9.716-6.46c8.027-4.927,11.057-15.413,6.21-23.685c-4.688-8.005-15.637-11.149-23.685-6.211
				c-53.359,32.745-81.714,93.749-73.035,155.598c7.799,55.564,46.902,101.281,98.446,121.662
				c52.955,20.936,114.173,7.744,156.694-28.857c43.645-37.572,61.082-98.711,47.531-154.088
				c-9.586-39.18-35.791-73.156-69.922-94.183c-8.039-4.954-19-1.784-23.684,6.21C334.867,163.836,337.91,174.297,345.931,179.237
				L345.931,179.237z"/>
		</g>
		<g>
			<path fill="#FFFFFF" d="M266.132,145.969c0,31.734,0,63.47,0,95.204c0,22.327,34.624,22.327,34.624,0c0-31.734,0-63.469,0-95.204
				C300.756,123.642,266.132,123.642,266.132,145.969L266.132,145.969z"/>
		</g>
	</g>
</g>
</svg>
