<?xml version="1.0" encoding="utf-8"?>
<!-- Generator: Adobe Illustrator 16.0.0, SVG Export Plug-In . SVG Version: 6.00 Build 0)  -->
<!DOCTYPE svg PUBLIC "-//W3C//DTD SVG 1.1//EN" "http://www.w3.org/Graphics/SVG/1.1/DTD/svg11.dtd">
<svg version="1.1" id="Camada_1" xmlns="http://www.w3.org/2000/svg" xmlns:xlink="http://www.w3.org/1999/xlink" x="0px" y="0px"
	 width="156px" height="64px" viewBox="-24.5 1.667 156 64" enable-background="new -24.5 1.667 156 64" xml:space="preserve">
<g>
	<path d="M30.273,48.553c-4.088,0-7.6-1.399-10.661-4.199c-1.9-1.74-3.467-3.875-4.908-6.092c-1.44,2.199-3.008,4.35-4.908,6.092
		c-3.306,3.029-7.094,4.394-11.6,4.174c-8.538-0.034-15.49-6.788-15.49-15.087c0-8.32,6.99-15.088,15.6-15.088
		c4.504-0.078,8.855,1.632,12.1,4.756c1.652,1.54,3.048,3.32,4.32,5.186c1.272-1.866,2.667-3.648,4.319-5.186
		c3.247-3.124,7.596-4.834,12.1-4.756c8.594,0,15.602,6.768,15.602,15.088c0,8.297-6.953,15.053-15.512,15.089
		c-0.307,0.015-0.615,0.021-0.924,0.021L30.273,48.553z M17.833,33.241c1.705,2.767,3.359,5.34,5.375,7.188
		c2.275,2.086,4.673,2.943,7.773,2.799l0.141-0.004c5.654,0,10.256-4.399,10.256-9.759c0-5.361-4.6-9.761-10.256-9.761
		c-3.157-0.072-6.209,1.128-8.473,3.33c-1.823,1.696-3.331,3.87-4.815,6.232L17.833,33.241z M-1.693,23.679
		c-5.654,0-10.256,4.4-10.256,9.76c0,5.36,4.6,9.761,10.256,9.761l0.14,0.004c3.1,0.164,5.5-0.693,7.774-2.8
		c2.016-1.849,3.672-4.4,5.376-7.188c-1.488-2.361-2.994-4.537-4.816-6.233c-2.44-2.27-5.134-3.33-8.474-3.33V23.679z
		 M31.832,31.507v-2.888h-3.004v2.888h-2.888v2.992h2.888v2.91h3.006v-2.91h2.887v-2.992h-2.887 M-6.037,31.453h9.492v3.084h-9.492
		V31.453z"/>
	<g>
		<path d="M64.937,37.412c-0.207,0.159-0.464,0.342-0.771,0.549s-0.667,0.435-1.081,0.683c-0.372,0.214-0.701,0.398-0.988,0.554
			c-0.286,0.155-0.525,0.271-0.719,0.347c-0.282,0.131-0.582,0.226-0.899,0.284s-0.642,0.088-0.973,0.088
			c-0.104,0-0.219-0.016-0.347-0.047s-0.264-0.067-0.409-0.108c-0.179-0.048-0.33-0.09-0.455-0.124
			c-0.123-0.034-0.227-0.056-0.31-0.063l-0.124-0.124l-0.301-0.041c-0.131-0.007-0.287-0.072-0.471-0.196
			c-0.182-0.125-0.381-0.297-0.594-0.518c-0.207-0.207-0.375-0.403-0.502-0.59c-0.128-0.186-0.219-0.355-0.274-0.507l-0.279-0.89
			c-0.097-0.304-0.169-0.548-0.218-0.734c-0.048-0.187-0.068-0.307-0.062-0.362l0.114-0.465c-0.056-0.159-0.099-0.29-0.13-0.394
			c-0.03-0.104-0.046-0.183-0.046-0.237c0-0.056,0.017-0.225,0.051-0.508c0.035-0.282,0.083-0.676,0.146-1.179
			c0.048-0.097,0.1-0.214,0.155-0.351c0.055-0.138,0.106-0.293,0.154-0.466l-0.03-0.228c0-0.055,0.012-0.119,0.036-0.191
			c0.023-0.072,0.057-0.153,0.098-0.243c0.159-0.338,0.318-0.679,0.477-1.024s0.316-0.679,0.476-1.003
			c0.138-0.248,0.315-0.503,0.532-0.766c0.218-0.262,0.468-0.534,0.75-0.817c0.063-0.069,0.139-0.159,0.229-0.269
			s0.196-0.231,0.32-0.362c0.117-0.069,0.26-0.174,0.43-0.315c0.168-0.141,0.37-0.322,0.604-0.543
			c0.069-0.028,0.152-0.065,0.248-0.114c0.097-0.048,0.214-0.107,0.353-0.176c0.034-0.021,0.077-0.055,0.129-0.104
			s0.112-0.1,0.181-0.155c0.076-0.069,0.352-0.172,0.828-0.31c0.476-0.138,0.786-0.207,0.931-0.207c0.317,0,0.586,0.022,0.807,0.067
			c0.221,0.044,0.396,0.115,0.528,0.212l0.33,0.062c0.276,0.062,0.479,0.272,0.61,0.631c0.132,0.359,0.197,0.876,0.197,1.552
			c0,0.317-0.004,0.571-0.011,0.76c-0.007,0.19-0.018,0.319-0.031,0.388c-0.041,0.207-0.088,0.467-0.14,0.781
			c-0.052,0.314-0.118,0.678-0.201,1.091c-0.007,0.11-0.052,0.292-0.138,0.543c-0.087,0.251-0.198,0.563-0.337,0.936
			c-0.145,0.407-0.269,0.715-0.372,0.925c-0.102,0.211-0.188,0.326-0.257,0.347c-0.276,0.069-0.57,0.146-0.888,0.228
			c-0.152,0-0.259-0.012-0.321-0.036c-0.062-0.024-0.093-0.063-0.093-0.119c0-0.048,0.012-0.124,0.036-0.228
			s0.036-0.176,0.036-0.217c-0.021-0.262-0.041-0.527-0.062-0.796c0-0.097,0.027-0.286,0.082-0.568
			c0.056-0.283,0.139-0.645,0.249-1.086c0.117-0.483,0.221-0.864,0.309-1.143c0.089-0.279,0.162-0.454,0.217-0.522
			c0.198-0.186,0.345-0.364,0.437-0.533c0.093-0.169,0.14-0.322,0.14-0.46c0-0.193-0.047-0.362-0.14-0.507
			c-0.094-0.145-0.233-0.255-0.419-0.331c-0.18-0.041-0.36-0.081-0.543-0.119c-0.184-0.038-0.364-0.084-0.544-0.14
			c-0.145,0.055-0.273,0.096-0.388,0.124c-0.113,0.027-0.212,0.052-0.295,0.072c-0.462,0.076-0.905,0.29-1.329,0.642
			c-0.424,0.352-0.829,0.838-1.215,1.458c-0.318,0.538-0.572,1.078-0.766,1.619c-0.193,0.542-0.324,1.084-0.394,1.629
			c-0.027,0.165-0.062,0.371-0.104,0.615c-0.041,0.245-0.1,0.533-0.176,0.864c0.062,0.207,0.117,0.396,0.165,0.568l-0.104,0.941
			c0,0.035,0.031,0.105,0.094,0.212c0.063,0.107,0.158,0.265,0.289,0.471c0.076,0.117,0.146,0.256,0.207,0.414
			c0.063,0.159,0.111,0.338,0.146,0.538c0.014,0.048,0.04,0.1,0.077,0.155c0.038,0.055,0.081,0.1,0.129,0.135
			c0.104,0.089,0.204,0.169,0.301,0.237c0.297,0.317,0.611,0.557,0.946,0.719s0.691,0.243,1.07,0.243
			c0.035,0,0.164-0.017,0.389-0.052c0.224-0.034,0.532-0.089,0.926-0.165c0.068-0.049,0.16-0.097,0.273-0.145
			c0.114-0.049,0.25-0.101,0.409-0.155c0.138-0.139,0.275-0.236,0.413-0.295c0.139-0.059,0.266-0.088,0.383-0.088
			c0.035-0.049,0.078-0.107,0.13-0.176c0.052-0.069,0.119-0.146,0.201-0.228c0.207-0.083,0.396-0.191,0.569-0.326
			s0.338-0.291,0.496-0.471C64.799,37.061,64.937,37.378,64.937,37.412z"/>
		<path d="M71.164,36.461c0.275,0.6,0.414,0.917,0.414,0.951c-0.09,0.125-0.173,0.256-0.249,0.394
			c-0.075,0.138-0.158,0.279-0.248,0.424c-0.083,0.124-0.189,0.231-0.32,0.321c-0.131,0.089-0.283,0.165-0.455,0.228
			c-0.248,0.097-0.483,0.191-0.704,0.284s-0.42,0.185-0.6,0.274c-0.2,0.097-0.415,0.16-0.646,0.191
			c-0.231,0.03-0.453,0.06-0.667,0.088c-0.152,0.041-0.302,0.067-0.45,0.077c-0.148,0.011-0.284,0.016-0.408,0.016
			c-0.104,0-0.19-0.005-0.259-0.016c-0.069-0.01-0.128-0.029-0.176-0.057c-0.063-0.041-0.123-0.083-0.182-0.124
			c-0.059-0.042-0.115-0.079-0.17-0.114c-0.117-0.068-0.207-0.12-0.27-0.155c-0.083-0.048-0.143-0.186-0.181-0.413
			s-0.057-0.559-0.057-0.995c0-0.304,0.086-0.786,0.258-1.448c0.173-0.663,0.259-1.104,0.259-1.325c0-0.048-0.007-0.115-0.021-0.201
			c-0.014-0.087-0.021-0.157-0.021-0.213c0-0.193,0.067-0.633,0.201-1.319c0.135-0.687,0.202-1.164,0.202-1.434
			c0-0.131-0.05-0.226-0.15-0.284c-0.1-0.059-0.149-0.146-0.149-0.264c0-0.166,0.014-0.352,0.041-0.558
			c0.027-0.207,0.076-0.435,0.145-0.683c0.056-0.2,0.107-0.401,0.155-0.604c0.049-0.204,0.097-0.402,0.146-0.595
			c0.048-0.227,0.098-0.458,0.149-0.692s0.095-0.462,0.13-0.682c0.041-0.151,0.106-0.338,0.196-0.559s0.196-0.472,0.32-0.754
			c0.063-0.138,0.117-0.268,0.166-0.388c0.048-0.121,0.1-0.25,0.155-0.388c0.055-0.109,0.134-0.208,0.237-0.294
			c0.104-0.086,0.231-0.164,0.383-0.233c0.124-0.048,0.234-0.084,0.331-0.108c0.097-0.024,0.162-0.037,0.196-0.037
			c0.187,0,0.323,0.064,0.409,0.191c0.086,0.128,0.129,0.323,0.129,0.584c0,0.083-0.005,0.178-0.016,0.285
			c-0.01,0.107-0.036,0.229-0.077,0.367c-0.027,0.145-0.054,0.269-0.078,0.373c-0.023,0.103-0.043,0.186-0.057,0.248
			c-0.007,0.166-0.017,0.317-0.031,0.455c-0.014,0.138-0.03,0.266-0.052,0.383c-0.041,0.083-0.096,0.183-0.165,0.3
			c-0.048,0.324-0.088,0.595-0.119,0.812c-0.031,0.217-0.047,0.371-0.047,0.46c0,0.29-0.073,0.654-0.222,1.091
			c-0.148,0.438-0.223,0.771-0.223,0.998c0,0.097-0.018,0.223-0.052,0.378s-0.086,0.34-0.155,0.554
			c-0.076,0.289-0.136,0.513-0.181,0.671c-0.045,0.159-0.074,0.256-0.088,0.29c-0.014,0.104-0.029,0.224-0.047,0.362
			c-0.018,0.138-0.043,0.3-0.077,0.485c-0.159,0.752-0.278,1.375-0.357,1.867c-0.079,0.493-0.119,0.864-0.119,1.112
			c0,0.228,0.024,0.403,0.072,0.527c0.049,0.124,0.121,0.187,0.218,0.187c0.435,0,0.874-0.048,1.318-0.145
			c0.445-0.097,0.909-0.238,1.392-0.425c0.056-0.007,0.108-0.021,0.16-0.041s0.105-0.041,0.161-0.062
			c0.082-0.097,0.145-0.187,0.186-0.27c0.09-0.055,0.169-0.112,0.238-0.171S71.116,36.523,71.164,36.461z"/>
		<path d="M72.561,37.247c0-0.386,0.016-0.712,0.047-0.978c0.03-0.266,0.066-0.475,0.108-0.626
			c-0.014-0.117-0.031-0.237-0.052-0.362c0-0.145,0.018-0.386,0.052-0.724s0.086-0.779,0.155-1.324
			c0.062-0.524,0.115-0.929,0.16-1.215s0.077-0.46,0.099-0.522c-0.015-0.117-0.029-0.244-0.047-0.382
			c-0.018-0.138-0.047-0.29-0.088-0.455l-0.228-0.166l-0.052-0.124c0.014-0.193,0.025-0.388,0.036-0.584
			c0.011-0.197,0.032-0.395,0.067-0.595c0.014-0.249,0.046-0.466,0.098-0.652s0.105-0.348,0.161-0.486
			c0.021-0.034,0.043-0.083,0.066-0.145c0.024-0.063,0.058-0.128,0.099-0.197c0.063-0.248,0.124-0.497,0.187-0.745
			c0.062-0.249,0.127-0.49,0.196-0.724c0.104-0.234,0.252-0.424,0.445-0.569c0.192-0.145,0.427-0.238,0.703-0.279
			c0.193-0.104,0.358-0.181,0.496-0.233s0.248-0.078,0.331-0.078c0.097,0,0.173,0.038,0.228,0.114
			c0.056,0.076,0.083,0.183,0.083,0.321c0,0.055-0.027,0.247-0.083,0.574c-0.055,0.327-0.142,0.781-0.259,1.36
			c-0.021,0.193-0.055,0.422-0.103,0.688c-0.049,0.266-0.114,0.581-0.197,0.947c-0.104,0.407-0.205,0.853-0.305,1.339
			c-0.101,0.486-0.191,1.022-0.274,1.608c-0.034,0.248-0.072,0.493-0.113,0.734c-0.042,0.242-0.08,0.486-0.114,0.734
			c-0.041,0.283-0.077,0.551-0.108,0.802c-0.031,0.252-0.047,0.478-0.047,0.678c0,0.076,0.005,0.148,0.016,0.218
			c0.011,0.068,0.016,0.134,0.016,0.196c0.014,0.076,0.012,0.176-0.005,0.3c-0.018,0.124-0.036,0.272-0.058,0.445
			c-0.027,0.165-0.052,0.315-0.072,0.449c-0.021,0.135-0.031,0.236-0.031,0.306c0,0.352,0.009,0.636,0.026,0.854
			c0.018,0.217,0.036,0.36,0.057,0.429c0.049,0.187,0.097,0.387,0.145,0.601c0,0.117-0.154,0.291-0.465,0.522
			c-0.311,0.23-0.535,0.346-0.673,0.346c-0.082,0-0.156-0.029-0.222-0.088c-0.066-0.059-0.133-0.146-0.202-0.264
			c-0.048-0.11-0.086-0.21-0.114-0.3c-0.027-0.09-0.041-0.172-0.041-0.248c0-0.041,0.014-0.107,0.041-0.196
			c0.028-0.09,0.042-0.155,0.042-0.197c-0.056-0.206-0.117-0.379-0.187-0.517c-0.014,0.068-0.021,0.055-0.021-0.042
			C72.561,37.699,72.561,37.516,72.561,37.247z"/>
		<path d="M77.619,29.292c-0.021-0.138-0.045-0.283-0.072-0.434c0,0.062,0.01,0.014,0.03-0.145c0.021-0.159,0.049-0.431,0.083-0.817
			c0.056-0.076,0.095-0.143,0.119-0.202s0.047-0.112,0.067-0.16c-0.063-0.076-0.108-0.14-0.14-0.191s-0.047-0.095-0.047-0.129
			c0.056-0.42,0.107-0.821,0.155-1.2c0.007-0.104,0.067-0.221,0.181-0.352c0.114-0.131,0.271-0.272,0.471-0.424
			c0.159-0.131,0.314-0.242,0.466-0.331c0.151-0.09,0.297-0.162,0.435-0.217c0.187-0.062,0.297-0.114,0.331-0.155
			s0.072-0.062,0.113-0.062c0.11,0,0.195,0.055,0.254,0.166s0.088,0.276,0.088,0.497c0,0.117-0.029,0.279-0.088,0.486
			c-0.059,0.207-0.088,0.358-0.088,0.455c0,0.041,0.005,0.2,0.016,0.476c0.01,0.276,0.025,0.672,0.046,1.19
			c0.008,0.372,0.061,0.769,0.161,1.189c0.1,0.42,0.229,0.858,0.388,1.314c0.214,0.593,0.444,1.036,0.694,1.329
			c0.249,0.293,0.521,0.439,0.817,0.439c0.234,0,0.545-0.151,0.932-0.455c0.386-0.304,0.843-0.759,1.367-1.365
			c0.399-0.469,0.757-0.907,1.07-1.314s0.567-0.779,0.76-1.117c0.18-0.303,0.39-0.576,0.633-0.817
			c0.242-0.241,0.518-0.462,0.828-0.662c0.097-0.056,0.176-0.1,0.237-0.135c0.063-0.035,0.11-0.052,0.146-0.052
			c0.122,0,0.215,0.093,0.28,0.279c0.064,0.187,0.097,0.462,0.097,0.828c-0.041,0.338-0.075,0.672-0.104,1.003
			c-0.062,0.517-0.153,1.055-0.273,1.614c-0.121,0.559-0.276,1.138-0.47,1.738c-0.096,0.304-0.179,0.569-0.248,0.797
			c-0.068,0.227-0.117,0.419-0.145,0.579c-0.014,0.09-0.033,0.201-0.057,0.336c-0.024,0.135-0.05,0.291-0.078,0.471
			c-0.068,0.173-0.145,0.345-0.228,0.518c-0.068,0.138-0.126,0.303-0.171,0.496c-0.044,0.193-0.084,0.417-0.117,0.673
			c0,0.048-0.003,0.11-0.01,0.186c-0.007,0.076-0.014,0.155-0.021,0.238c-0.159,0.703-0.321,1.386-0.486,2.048
			c-0.014,0.063-0.045,0.142-0.094,0.238c-0.089,0.027-0.191,0.086-0.305,0.176c-0.114,0.09-0.232,0.214-0.355,0.372
			c-0.124,0.139-0.228,0.24-0.31,0.306c-0.083,0.065-0.146,0.098-0.187,0.098c-0.056,0-0.101-0.017-0.135-0.051
			c-0.034-0.035-0.052-0.094-0.052-0.177c0.007-0.055,0.018-0.1,0.031-0.134c0.097-0.234,0.181-0.572,0.253-1.014
			c0.073-0.441,0.14-0.986,0.202-1.635c0.007-0.138,0.063-0.511,0.166-1.117c0.103-0.606,0.255-1.448,0.455-2.524
			c0.027-0.172,0.063-0.384,0.108-0.636s0.102-0.54,0.171-0.864c0.048-0.166,0.088-0.309,0.118-0.429
			c0.031-0.121,0.047-0.209,0.047-0.264c0-0.069-0.012-0.119-0.036-0.15c-0.024-0.031-0.061-0.046-0.108-0.046
			c-0.042,0-0.117,0.053-0.228,0.16s-0.248,0.268-0.414,0.481c-0.097,0.118-0.196,0.242-0.297,0.373
			c-0.1,0.131-0.205,0.258-0.315,0.382c-0.186,0.193-0.358,0.376-0.517,0.549l-0.766,0.765c-0.069,0.041-0.153,0.093-0.254,0.155
			c-0.102,0.062-0.221,0.134-0.358,0.217c-0.131,0.207-0.34,0.385-0.626,0.533c-0.286,0.147-0.55,0.222-0.791,0.222
			c-0.29,0-0.569-0.091-0.835-0.273c-0.265-0.183-0.522-0.464-0.771-0.844c-0.11-0.186-0.219-0.372-0.325-0.558
			c-0.107-0.186-0.223-0.372-0.347-0.559l-0.052,0.011c-0.035,0.041-0.099,0.32-0.191,0.838c-0.094,0.517-0.212,1.275-0.357,2.275
			c-0.158,1.028-0.279,1.835-0.361,2.421c-0.083,0.586-0.125,0.966-0.125,1.138c-0.014,0.234-0.057,0.416-0.129,0.543
			c-0.072,0.128-0.185,0.202-0.336,0.223c-0.076,0.007-0.183,0.026-0.321,0.057c-0.138,0.031-0.303,0.071-0.496,0.119
			c-0.034-0.007-0.065-0.019-0.093-0.036c-0.028-0.018-0.042-0.043-0.042-0.077l0.063-0.383l-0.104-0.394
			c0.041-0.214,0.083-0.421,0.124-0.62c0.027-0.414,0.052-0.804,0.072-1.169c0.007-0.076,0.033-0.204,0.078-0.383
			c0.044-0.18,0.066-0.314,0.066-0.403c0-0.049-0.01-0.119-0.03-0.213c-0.021-0.093-0.031-0.163-0.031-0.212
			c0-0.379,0.061-0.941,0.181-1.686c0.121-0.745,0.182-1.31,0.182-1.697c-0.021-0.158-0.045-0.316-0.073-0.476
			c0.035-0.248,0.09-0.559,0.166-0.931C77.437,30.224,77.522,29.789,77.619,29.292z"/>
		<path d="M89.566,34.682c0.193,0.048,0.355,0.1,0.486,0.155c0.234-0.041,0.473-0.086,0.714-0.135h1.924
			c0.187,0,0.321,0.049,0.403,0.146c0.083,0.096,0.125,0.241,0.125,0.434c0,0.276-0.058,0.483-0.171,0.621
			c-0.114,0.138-0.277,0.207-0.491,0.207c-0.069,0-0.176-0.011-0.321-0.031c-0.145-0.021-0.252-0.031-0.32-0.031h-0.59
			c-0.248,0.049-0.496,0.094-0.745,0.135c-0.6-0.097-0.934-0.145-1.003-0.145c-0.09,0-0.209,0.012-0.357,0.036
			c-0.147,0.023-0.267,0.036-0.356,0.036c-0.124,0-0.224-0.026-0.3-0.078s-0.114-0.126-0.114-0.222c0-0.042,0.035-0.103,0.104-0.182
			c0.069-0.079,0.169-0.178,0.3-0.295c0.028-0.055,0.064-0.126,0.109-0.212s0.098-0.188,0.16-0.305
			c0.048-0.007,0.108-0.022,0.181-0.047S89.463,34.716,89.566,34.682z"/>
		<path d="M101.773,25.31c0.158,0.048,0.32,0.102,0.486,0.16c0.165,0.059,0.327,0.119,0.485,0.181
			c0.056,0.028,0.14,0.104,0.254,0.228c0.113,0.125,0.261,0.3,0.439,0.528c0.2,0.241,0.319,0.401,0.357,0.481
			c0.037,0.079,0.111,0.274,0.222,0.584c0.076,0.117,0.175,0.329,0.295,0.636c0.121,0.307,0.182,0.529,0.182,0.667
			c0,0.249-0.187,0.55-0.559,0.905c-0.373,0.355-0.666,0.533-0.88,0.533c-0.138,0-0.239-0.043-0.305-0.129
			c-0.065-0.086-0.099-0.212-0.099-0.377c-0.062-0.276-0.11-0.514-0.145-0.714c-0.193-0.751-0.45-1.317-0.771-1.696
			c-0.321-0.379-0.713-0.569-1.175-0.569c-0.234,0-0.464,0.04-0.688,0.119c-0.225,0.079-0.43,0.198-0.615,0.357
			c-0.097,0.076-0.225,0.204-0.383,0.383c-0.159,0.179-0.349,0.403-0.569,0.672c-0.027,0.048-0.065,0.104-0.113,0.166
			c-0.049,0.062-0.107,0.145-0.176,0.248c-0.063,0.117-0.144,0.257-0.243,0.419c-0.101,0.162-0.223,0.347-0.367,0.554
			c-0.063,0.179-0.124,0.345-0.187,0.497c-0.063,0.151-0.138,0.293-0.228,0.424c-0.021,0.028-0.041,0.081-0.063,0.161
			c-0.021,0.079-0.045,0.184-0.072,0.315c-0.048,0.159-0.102,0.331-0.16,0.517s-0.122,0.39-0.191,0.61
			c-0.11,0.751-0.189,1.346-0.238,1.784c-0.048,0.438-0.072,0.723-0.072,0.854c0,0.297,0.026,0.593,0.078,0.89
			s0.133,0.593,0.243,0.89c0.082,0.214,0.162,0.396,0.237,0.548c0.076,0.152,0.148,0.263,0.218,0.331
			c0.104,0.104,0.234,0.184,0.393,0.238c0.159,0.056,0.335,0.083,0.527,0.083c0.276,0,0.538-0.049,0.787-0.145
			c0.248-0.097,0.479-0.231,0.692-0.404c0.063-0.055,0.187-0.181,0.373-0.377c0.186-0.197,0.438-0.464,0.755-0.802
			c0.068-0.056,0.153-0.133,0.253-0.233c0.101-0.1,0.209-0.212,0.326-0.336c0.131-0.179,0.254-0.358,0.367-0.538
			c0.114-0.179,0.229-0.352,0.347-0.517c0.145-0.187,0.305-0.324,0.48-0.414c0.177-0.09,0.367-0.135,0.574-0.135
			c0.283,0,0.493,0.063,0.631,0.187c0.139,0.124,0.207,0.311,0.207,0.559c0,0.083-0.023,0.198-0.072,0.347
			c-0.048,0.148-0.079,0.264-0.093,0.347c-0.014,0.124-0.034,0.277-0.063,0.46c-0.027,0.183-0.059,0.398-0.093,0.646
			c-0.014,0.311-0.047,0.586-0.099,0.828c-0.053,0.241-0.124,0.451-0.214,0.631c-0.11,0.234-0.205,0.61-0.284,1.127
			c-0.079,0.518-0.178,0.896-0.295,1.139c-0.041,0.068-0.079,0.177-0.113,0.325c-0.036,0.148-0.074,0.336-0.116,0.563
			c-0.027,0.146-0.06,0.27-0.098,0.373s-0.092,0.186-0.16,0.248c-0.056,0.041-0.132,0.086-0.228,0.135
			c-0.097,0.048-0.231,0.1-0.405,0.155c-0.028,0.158-0.076,0.277-0.146,0.356c-0.068,0.079-0.162,0.119-0.279,0.119
			c-0.096,0-0.17-0.041-0.222-0.124s-0.078-0.218-0.078-0.403c0-0.069,0.013-0.178,0.036-0.326c0.024-0.148,0.067-0.336,0.13-0.563
			c0.027-0.11,0.052-0.259,0.072-0.445c0.021-0.186,0.034-0.413,0.041-0.683c0.014-0.138,0.05-0.355,0.108-0.651
			c0.059-0.297,0.144-0.662,0.254-1.097l-0.135-0.673c0.028-0.082,0.052-0.176,0.072-0.279c0-0.048-0.012-0.084-0.036-0.108
			c-0.023-0.023-0.06-0.036-0.108-0.036c-0.241,0.166-0.441,0.324-0.6,0.476c-0.352,0.304-0.648,0.552-0.888,0.745
			c-0.242,0.193-0.428,0.335-0.559,0.424c-0.276,0.18-0.556,0.328-0.838,0.445c-0.283,0.117-0.573,0.196-0.867,0.237l-0.456-0.093
			c-0.138,0.021-0.255,0.042-0.352,0.063c-0.151,0-0.313-0.038-0.486-0.114c-0.172-0.076-0.358-0.186-0.559-0.331
			c-0.172-0.138-0.331-0.304-0.479-0.496c-0.148-0.193-0.278-0.425-0.389-0.693c-0.041-0.083-0.093-0.248-0.155-0.496
			c-0.062-0.249-0.145-0.565-0.248-0.952c0.063-0.165,0.101-0.345,0.114-0.538c0.014-0.192,0.007-0.399-0.021-0.62l0.206-1.552
			c0.166-1.296,0.492-2.448,0.978-3.455c0.486-1.007,1.119-1.886,1.898-2.638c0.263-0.262,0.483-0.472,0.662-0.631
			c0.18-0.159,0.293-0.269,0.342-0.331c0.151-0.117,0.318-0.234,0.501-0.352c0.184-0.117,0.382-0.234,0.596-0.352
			c0.11-0.062,0.235-0.126,0.377-0.191c0.142-0.066,0.309-0.133,0.502-0.202l0.962-0.114l0.32,0.083L101.773,25.31z"/>
		<path d="M113.11,36.461l0.394,0.951c-0.076,0.069-0.167,0.144-0.274,0.223c-0.106,0.079-0.232,0.164-0.377,0.254
			c-0.146,0.048-0.319,0.117-0.522,0.207c-0.204,0.089-0.437,0.192-0.698,0.31c-0.2,0.124-0.364,0.218-0.492,0.279
			c-0.127,0.063-0.215,0.094-0.264,0.094c-0.09,0-0.253,0.038-0.491,0.113c-0.237,0.076-0.55,0.189-0.937,0.342
			c-0.206,0.075-0.426,0.153-0.656,0.232c-0.231,0.079-0.471,0.15-0.719,0.212l-0.642-0.134l-0.394,0.176
			c-0.131,0-0.264-0.002-0.397-0.006c-0.135-0.003-0.265-0.012-0.389-0.025c-0.199-0.007-0.35-0.034-0.449-0.083
			c-0.101-0.048-0.15-0.117-0.15-0.207l0.063-0.393l-0.063-0.072c-0.234,0-0.392-0.031-0.471-0.094
			c-0.079-0.062-0.119-0.207-0.119-0.435c0-0.104,0.005-0.275,0.016-0.517s0.026-0.556,0.047-0.941c0-0.035,0.022-0.107,0.067-0.218
			s0.066-0.189,0.066-0.237c-0.034-0.069-0.055-0.124-0.062-0.166c-0.007-0.041-0.011-0.079-0.011-0.113
			c0.014-0.27,0.043-0.601,0.088-0.993c0.045-0.394,0.102-0.858,0.171-1.396c0.083-0.324,0.151-0.689,0.207-1.097
			c-0.014-0.303-0.027-0.613-0.041-0.93c0.255-1.145,0.517-2.297,0.786-3.456c0.041-0.207,0.118-0.403,0.232-0.589
			c0.113-0.187,0.25-0.366,0.408-0.538c0.069-0.048,0.114-0.086,0.135-0.114c0.034-0.062,0.079-0.14,0.135-0.233
			c0.055-0.093,0.12-0.198,0.196-0.315c0.041-0.027,0.108-0.069,0.202-0.124c0.093-0.055,0.219-0.131,0.377-0.228
			c0.069-0.055,0.148-0.121,0.238-0.196c0.09-0.076,0.193-0.166,0.311-0.269c0.262-0.159,0.505-0.326,0.729-0.502
			c0.225-0.176,0.506-0.284,0.844-0.326c0.158-0.007,0.317-0.016,0.476-0.026s0.311-0.022,0.455-0.036
			c0.138-0.028,0.259-0.045,0.362-0.052c0.068-0.014,0.129-0.028,0.181-0.042s0.099-0.021,0.14-0.021
			c0.042,0,0.099,0.005,0.171,0.015c0.072,0.011,0.171,0.026,0.295,0.047c0.097,0.007,0.179,0.01,0.248,0.01s0.135-0.003,0.196-0.01
			c0.276,0.083,0.479,0.203,0.61,0.362c0.132,0.159,0.197,0.349,0.197,0.569c0,0.476-0.047,0.829-0.14,1.06
			c-0.094,0.231-0.24,0.347-0.44,0.347c-0.151,0-0.323-0.078-0.517-0.233s-0.714-0.233-1.563-0.233
			c-0.352,0.069-0.699,0.138-1.045,0.207c-0.034,0.055-0.074,0.097-0.118,0.124c-0.045,0.028-0.085,0.048-0.119,0.062l-0.362-0.134
			c-0.11,0.042-0.234,0.155-0.372,0.341c-0.139,0.186-0.283,0.441-0.435,0.766c-0.035,0.069-0.061,0.155-0.078,0.258
			c-0.017,0.104-0.025,0.224-0.025,0.362c-0.124,0.497-0.248,0.976-0.372,1.438c-0.118,0.497-0.213,0.872-0.285,1.127
			c-0.072,0.256-0.115,0.411-0.129,0.466c-0.021,0.069-0.038,0.135-0.052,0.196c-0.014,0.063-0.021,0.124-0.021,0.187
			c0,0.09,0.017,0.158,0.052,0.207c0.034,0.048,0.086,0.072,0.155,0.072c0.062,0,0.212-0.113,0.449-0.342
			c0.238-0.228,0.416-0.354,0.533-0.382c0.145-0.042,0.291-0.087,0.439-0.135c0.148-0.049,0.302-0.107,0.46-0.176
			c0.063-0.021,0.227-0.049,0.492-0.083c0.265-0.034,0.636-0.076,1.111-0.124l0.29,0.083l0.548-0.104l0.29,0.134
			c0.069,0.069,0.133,0.154,0.191,0.254s0.112,0.209,0.16,0.326c0,0.413-0.045,0.727-0.135,0.941
			c-0.089,0.214-0.224,0.32-0.403,0.32l-0.568-0.228c-0.47,0.048-0.934,0.095-1.392,0.14c-0.459,0.045-0.926,0.088-1.401,0.129
			c-0.58,0.117-1.024,0.308-1.335,0.569s-0.482,0.606-0.517,1.034c-0.008,0.09-0.031,0.228-0.073,0.414
			c-0.041,0.187-0.089,0.417-0.145,0.693l0.072,0.31c-0.062,0.297-0.11,0.576-0.145,0.838c-0.034,0.263-0.052,0.497-0.052,0.704
			c0,0.068,0.011,0.118,0.031,0.149s0.045,0.04,0.072,0.026c0.331-0.027,0.597-0.049,0.797-0.063
			c0.199-0.014,0.341-0.017,0.424-0.01c0.179,0.014,0.362,0.027,0.548,0.041l0.652-0.052c0.068-0.014,0.219-0.069,0.449-0.165
			c0.231-0.097,0.44-0.146,0.626-0.146c0.2,0,0.402-0.021,0.605-0.062c0.203-0.042,0.398-0.097,0.584-0.166
			c0.187-0.068,0.371-0.14,0.554-0.212s0.367-0.143,0.554-0.212c0.068-0.021,0.16-0.059,0.273-0.114
			C112.826,36.623,112.959,36.551,113.11,36.461z"/>
		<path d="M113.876,32.716c0-0.089,0.026-0.196,0.078-0.32c0.052-0.124,0.129-0.266,0.232-0.424
			c0.145-0.207,0.253-0.369,0.326-0.486c0.072-0.117,0.111-0.193,0.118-0.228c0.035-0.076,0.081-0.176,0.14-0.3
			c0.059-0.124,0.126-0.265,0.202-0.424c0.069-0.076,0.148-0.24,0.238-0.492c0.089-0.251,0.192-0.584,0.31-0.998
			c0.056-0.11,0.114-0.243,0.176-0.398c0.063-0.155,0.139-0.339,0.229-0.553c0.027-0.159,0.079-0.345,0.154-0.559
			c0.076-0.214,0.173-0.452,0.29-0.714c0.145-0.248,0.297-0.493,0.455-0.734c0.159-0.241,0.387-0.421,0.683-0.538
			c0.117,0.076,0.207,0.152,0.27,0.228c0.062,0.076,0.093,0.148,0.093,0.217c0,0.172-0.077,0.402-0.232,0.688
			s-0.233,0.481-0.233,0.584c0,0.055,0.031,0.107,0.094,0.155c0.055-0.028,0.154-0.11,0.3-0.249
			c0.145-0.138,0.334-0.324,0.568-0.559c0.193-0.179,0.367-0.326,0.522-0.439s0.302-0.185,0.439-0.212
			c0.09-0.035,0.204-0.065,0.342-0.093c0.138-0.027,0.293-0.072,0.466-0.134c0.09-0.048,0.162-0.097,0.217-0.145
			c0.049-0.042,0.124-0.083,0.228-0.124l0.155,0.031c0.063,0.062,0.234,0.126,0.518,0.191c0.282,0.066,0.462,0.099,0.538,0.099
			c0.062,0.034,0.134,0.089,0.217,0.166c0.083,0.076,0.189,0.158,0.32,0.248c0.276,0.166,0.533,0.409,0.771,0.729
			c0.237,0.32,0.453,0.719,0.646,1.194c0.179,0.435,0.315,0.849,0.408,1.242s0.14,0.772,0.14,1.138c0,1.152-0.145,2.151-0.435,2.999
			c-0.289,0.849-0.728,1.545-1.313,2.09c-0.056,0.056-0.122,0.123-0.202,0.202c-0.079,0.079-0.178,0.174-0.295,0.284v0.114
			c-0.014,0.068-0.053,0.143-0.118,0.222c-0.066,0.08-0.157,0.171-0.274,0.274c-0.255,0.234-0.514,0.471-0.776,0.709
			c-0.262,0.237-0.53,0.471-0.807,0.698c-0.345,0.296-0.672,0.53-0.982,0.703c-0.311,0.172-0.61,0.293-0.9,0.362
			c-0.124,0.11-0.277,0.194-0.46,0.253s-0.405,0.088-0.667,0.088c-0.387,0-0.7-0.025-0.941-0.077s-0.414-0.126-0.518-0.223
			c-0.062-0.063-0.135-0.124-0.217-0.187c-0.083-0.062-0.18-0.141-0.29-0.237c-0.117-0.09-0.228-0.254-0.331-0.491
			c-0.104-0.238-0.196-0.547-0.279-0.926c-0.055-0.283-0.099-0.558-0.129-0.823c-0.031-0.265-0.047-0.512-0.047-0.739
			c0-0.069,0.018-0.183,0.052-0.342c0.034-0.158,0.048-0.279,0.041-0.361c0-0.159-0.007-0.297-0.021-0.414
			c0-0.124,0.038-0.32,0.114-0.59c0.075-0.269,0.113-0.482,0.113-0.642c0-0.034-0.021-0.086-0.062-0.154
			c-0.11,0.124-0.19,0.237-0.238,0.341c-0.041,0.069-0.09,0.121-0.145,0.155c-0.056,0.034-0.107,0.052-0.155,0.052
			c-0.076,0-0.137-0.031-0.182-0.093c-0.044-0.063-0.066-0.155-0.066-0.279c0-0.083,0.019-0.207,0.057-0.373
			C113.857,32.934,113.876,32.806,113.876,32.716z M120.083,27.658c-0.166,0-0.335,0.021-0.507,0.062
			c-0.173,0.042-0.349,0.1-0.528,0.176l-1.003,0.445c-0.069,0.035-0.146,0.09-0.232,0.166c-0.087,0.076-0.182,0.18-0.285,0.311
			l-0.476,0.589c-0.151,0.18-0.286,0.507-0.403,0.983c-0.117,0.476-0.221,1.097-0.311,1.862c-0.068,0.585-0.117,1.132-0.145,1.639
			s-0.041,0.974-0.041,1.401c0,0.876,0.134,1.529,0.403,1.96c0.269,0.432,0.676,0.646,1.221,0.646c0.255,0,0.541-0.067,0.858-0.201
			c0.317-0.135,0.662-0.34,1.034-0.615c0.317-0.235,0.597-0.471,0.838-0.709s0.441-0.481,0.6-0.729
			c0.069-0.097,0.178-0.3,0.326-0.61s0.354-0.734,0.615-1.272c0.173-0.393,0.308-0.791,0.404-1.194
			c0.096-0.403,0.145-0.819,0.145-1.247c-0.042-0.207-0.086-0.41-0.135-0.61l0.072-0.445c-0.068-0.083-0.127-0.159-0.176-0.228
			c-0.021-0.055-0.038-0.1-0.052-0.135c-0.214-0.745-0.503-1.305-0.869-1.681C121.072,27.846,120.621,27.658,120.083,27.658z"/>
	</g>
</g>
</svg>
